<svg version="1.2" baseProfile="tiny" viewBox="0 0 11.928 18.000" xmlns:xlink="http://www.w3.org/1999/xlink" xmlns="http://www.w3.org/2000/svg">
<path style="fill:#ffffff;" d="M11.219,14.786c0.4,0,0.709,0.306,0.709,0.708c0,0.4-0.309,0.74-0.709,0.74   c-0.315,0-0.564-0.181-0.677-0.432H7.077l-0.222-0.377L6.26,18l-0.607-0.03l-0.566-3.517l-0.432,1.35H1.921v-0.616h2.197   l0.711-3.826l0.596,0.004l0.644,4.72l0.361-1.683l0.554,0.021l0.448,0.764h3.114C10.658,14.946,10.907,14.786,11.219,14.786    M2.307,3.257h0.734V2.822H2.307V3.257z M1.319,3.257h0.736V2.822H1.319V3.257z M3.295,3.257h0.736V2.822H3.295V3.257z M2.145,6.401   h0.373V4.904H2.145V6.401z M3.148,14.173l-2.247,0.013l-0.005,2.411H0.414C0.182,16.597,0,16.41,0,16.181V0.417   C0,0.188,0.182,0,0.414,0h4.613c0.229,0,0.415,0.188,0.415,0.417v10.007H3.894l-0.087,0.434H0.994v0.213v0.227v0.134H3.69   l-0.136,0.684H0.994v0.217v0.224v0.134H3.44L3.148,14.173z M0.994,3.615h3.453V1.139H0.994V3.615z M3.313,5.628   c0-0.549-0.443-0.997-0.996-0.997c-0.55,0-0.998,0.448-0.998,0.997c0,0.552,0.448,0.999,0.998,0.999   C2.87,6.627,3.313,6.18,3.313,5.628 M0.994,10.214h3.453V9.637H0.994V10.214z"/>
</svg>